<svg width="127" height="171" viewBox="0 0 127 171" fill="none" xmlns="http://www.w3.org/2000/svg">
<path d="M0 55.3137C0.287908 40.5481 6.30079 26.4854 16.7473 16.1458C27.1938 5.80618 41.2406 0.0144348 55.8709 0.0144348C70.5012 0.0144348 84.548 5.80618 94.9945 16.1458C105.441 26.4854 111.454 40.5481 111.742 55.3137C111.742 86.0307 86.5712 110.74 55.6004 110.74C48.338 110.809 41.1337 109.428 34.4022 106.675C27.6708 103.923 21.545 99.8542 16.3774 94.7028C11.2098 89.5514 7.10249 83.4192 4.29178 76.6592C1.48107 69.8992 0.0225064 62.6449 0 55.3137ZM84.8182 55.1389C84.9239 51.2344 84.2534 47.348 82.8463 43.7095C81.4391 40.0709 79.3238 36.754 76.6253 33.9545C73.9269 31.1551 70.7 28.9299 67.1353 27.4105C63.5706 25.8912 59.7403 25.1083 55.8709 25.1083C52.0014 25.1083 48.1712 25.8912 44.6065 27.4105C41.0418 28.9299 37.8149 31.1551 35.1165 33.9545C32.418 36.754 30.3027 40.0709 28.8955 43.7095C27.4884 47.348 26.8179 51.2344 26.9237 55.1389C26.8179 59.0434 27.4884 62.9297 28.8955 66.5683C30.3027 70.2068 32.418 73.5238 35.1165 76.3232C37.8149 79.1227 41.0418 81.3478 44.6065 82.8672C48.1712 84.3866 52.0014 85.1694 55.8709 85.1694C59.7403 85.1694 63.5706 84.3866 67.1353 82.8672C70.7 81.3478 73.9269 79.1227 76.6253 76.3232C79.3238 73.5238 81.4391 70.2068 82.8463 66.5683C84.2534 62.9297 84.9239 59.0434 84.8182 55.1389ZM24.4131 155.264C22.3787 156.575 20.6689 156.466 19.4136 154.762L8.91681 140.015C7.68317 138.311 8.48398 136.257 11.3625 134.422C29.1683 123.004 50.4985 118.561 71.3276 121.929C92.1566 125.298 111.044 136.246 124.424 152.708C126.589 155.374 126.589 157.58 125.009 158.804L110.4 169.465C108.69 170.71 107.024 170.251 105.509 168.373C95.9153 156.559 82.3671 148.702 67.4247 146.286C52.4824 143.871 37.1811 147.065 24.4131 155.264Z" fill="#171738"/>
</svg>
