<svg xmlns="http://www.w3.org/2000/svg" fill="none" viewBox="0 0 72 72"><path fill="#171738" d="M56.34 29.44c-3.28 0-5.99 2.41-6.47 5.56H37.74l6.07-10.51c2.97 1.15 6.41.01 8.05-2.83 1.81-3.14.74-7.15-2.4-8.96a6.557 6.557 0 0 0-8.96 2.4 6.54 6.54 0 0 0 1.58 8.38l-6.07 10.51-6.07-10.51c2.48-1.99 3.22-5.54 1.58-8.38a6.557 6.557 0 0 0-8.96-2.4 6.557 6.557 0 0 0-2.4 8.96c1.64 2.84 5.08 3.98 8.05 2.83L34.28 35H22.15a6.55 6.55 0 0 0-6.47-5.56c-3.62 0-6.56 2.94-6.56 6.56s2.94 6.56 6.56 6.56c3.28 0 5.99-2.41 6.47-5.56h12.13l-6.07 10.51c-2.97-1.15-6.41-.01-8.05 2.83a6.557 6.557 0 0 0 2.4 8.96c3.14 1.81 7.15.74 8.96-2.4a6.54 6.54 0 0 0-1.58-8.38l6.07-10.51 6.07 10.51c-2.48 1.99-3.22 5.54-1.58 8.38a6.557 6.557 0 0 0 8.96 2.4 6.557 6.557 0 0 0 2.4-8.96c-1.64-2.84-5.08-3.98-8.05-2.83L37.74 37h12.13a6.55 6.55 0 0 0 6.47 5.56c3.62 0 6.56-2.94 6.56-6.56s-2.94-6.56-6.56-6.56"/></svg>