<svg xmlns="http://www.w3.org/2000/svg" fill="none" viewBox="0 0 72 72"><path fill="#171738" d="M56.12 24.72c-.25-2.99-2.97-5.36-5.95-5.29-4.87.11-7.57 5.9-4.44 9.67 3.71 4.48 10.88 1.43 10.4-4.38zM39.82 20.97c4.55-3.8 1.35-11.09-4.66-10.45-2.28.24-4.33 2.12-4.91 4.3-1.49 5.63 5.04 9.93 9.56 6.15zM26.19 29.18c3.28-3.86.45-9.87-4.62-9.75-4.82.12-7.45 5.95-4.37 9.67 2.33 2.81 6.62 2.86 8.98.07z"/><path fill="#171738" d="M60.43 48.64c-.09-4.26.71-8.05-2.23-11.59-3.19-3.85-8.98-4.65-13.07-1.75.15-2.34-.3-4.56-1.65-6.49-3.64-5.18-11.41-5.18-15.01.04-1.32 1.92-1.76 4.12-1.62 6.44-4.8-3.17-11.3-1.9-14.12 3.22-1.8 3.26-1.13 6.77-1.25 10.34l.12.26h14.08l-1.65 2.4c-1.25 2.17-1.84 5.09-1.55 7.59.01.11 0 .19.12.26h2.15l.11-.19c-.12-2.95.49-5.69 2.49-7.91 4.33-4.82 12.54-4.86 17.05-.26 2.19 2.24 2.92 5.14 2.74 8.23.02.05.17.13.19.13h2.15c.11-.07.1-.15.12-.26.3-2.54-.47-5.77-1.8-7.94l-1.47-2.06h14.08c.18-.12.04-.29.03-.48zM41.45 43.1c-2.8 4.32-9.24 3.84-11.38-.86-1.83-4.01.75-8.84 5.17-9.29 5.54-.56 9.26 5.46 6.21 10.15"/></svg>