<svg xmlns="http://www.w3.org/2000/svg" fill="none" viewBox="0 0 72 72"><path fill="#171738" d="m61.53 22.82-3.52-.12c-2.78.27-5.35 1.85-7.67-.68l-2.76.81-.19-4.42 2.79.29c3.94-4.02 9.49-.05 11.34 4.11zm-49.17-.98c.02.47.33.86.74.91 2.97.42 14.66 1.96 23.14 1.64 3.03-.12 6.49-.75 9.73-1.52l-.16-4.51c-3.28-.53-6.79-.91-9.82-.8-8.48.3-20.02 2.69-22.96 3.32-.41.09-.69.5-.67.97zM54.46 31.91l-7.77.07a4.91 4.91 0 0 0-4.87 4.95 4.906 4.906 0 0 1-4.87 4.95h-1.23a4.89 4.89 0 0 1-4.95-4.86 4.91 4.91 0 0 0-4.95-4.87l-7.77.07a4.91 4.91 0 0 0-4.87 4.95l.04 4.42c.09 10.44 8.63 18.83 19.07 18.74l8.43-.07c10.44-.09 18.83-8.63 18.74-19.07l-.04-4.42a4.91 4.91 0 0 0-4.95-4.87zM17.65 42.37A4.4 4.4 0 0 1 22 37.94c2.42-.03 4.4 1.93 4.43 4.35s-1.93 4.4-4.35 4.43-4.4-1.93-4.43-4.35m12.48 13.98c-2.42.02-4.4-1.93-4.43-4.35s1.93-4.4 4.35-4.43c2.42-.02 4.4 1.93 4.43 4.35s-1.93 4.4-4.35 4.43m12.67-.11c-2.42.02-4.4-1.93-4.43-4.35a4.4 4.4 0 0 1 4.35-4.43c2.42-.03 4.4 1.93 4.43 4.35s-1.93 4.4-4.35 4.43m7.59-9.78c-2.42.02-4.4-1.93-4.43-4.35s1.93-4.4 4.35-4.43 4.4 1.93 4.43 4.35-1.93 4.4-4.35 4.43"/></svg>