<svg xmlns="http://www.w3.org/2000/svg" fill="none" viewBox="0 0 72 72"><path fill="#171738" d="M52.19 20.32c.36-2.43.61-4.85.73-7.21H19.09c.11 2.36.35 4.78.7 7.21h-9.12v2.5c0 5.92 4.54 14.39 14.2 15.93 2.35 5.25 5.27 9.21 8.55 10.61v5.05h-3.43l-8.48.03v4.44h28.98v-4.44l-8.5-.03h-3.41v-5.09c3.14-1.44 6.02-5.36 8.38-10.54 9.77-1.47 14.37-10.01 14.37-15.96v-2.5zm-36.13 5h4.61a78 78 0 0 0 2.01 7.66c-3.82-1.65-5.84-4.96-6.62-7.66m33.13 7.71c.81-2.46 1.51-5.06 2.09-7.71h4.66c-.79 2.73-2.85 6.08-6.75 7.71"/></svg>