<svg xmlns="http://www.w3.org/2000/svg" fill="none" viewBox="0 0 72 72"><g clip-path="url(#a)"><path fill="#000" d="M63.63 28.372v15.276c0 .644-.447 1.168-.995 1.168H59.47c-.547 0-.995.524-.995 1.168v5.358c0 .644-.448 1.168-.996 1.168H47.307c-.548 0-.996-.524-.996-1.168V39.187h-21.36v12.155c0 .644-.448 1.168-.996 1.168H13.782c-.547 0-.995-.524-.995-1.168v-5.358c0-.644-.448-1.168-.996-1.168H8.627c-.547 0-.995-.524-.995-1.168V28.371c0-.644.448-1.168.995-1.168h3.165c.548 0 .996-.523.996-1.168v-5.357c0-.645.448-1.168.995-1.168h10.173c.548 0 .995.523.995 1.168v12.245h21.361V20.678c0-.645.448-1.168.996-1.168h10.172c.548 0 .996.523.996 1.168v5.357c0 .645.448 1.168.995 1.168h3.166c.547 0 .995.524.995 1.169"/></g><defs><clipPath id="a"><path fill="#fff" d="M7.63 19.51h56v33h-56z"/></clipPath></defs></svg>