<svg xmlns="http://www.w3.org/2000/svg" fill="none" viewBox="0 0 72 72"><path fill="#171738" d="M49.6 40.33c-.02-1.7-.31-3.33-.84-4.86l9.49-19.01s.01-.03.02-.04c.09-.2.15-.41.19-.63.21-1.25-.58-2.25-1.76-2.25-.94 0-1.84.63-2.27 1.52l-.03.06-7.96 15.97a15.77 15.77 0 0 0-12.65-6.34c-8.7 0-15.78 7.07-15.81 15.77H13.5c0 12.33 10.07 22.52 22.5 22.52s22.5-10.19 22.5-22.52h-4.49L62.26 24s.01-.03.02-.04c.09-.2.15-.41.19-.63.21-1.25-.58-2.25-1.76-2.25-.94 0-1.84.63-2.27 1.52l-.03.06zm-23.09.19h-4.03c.03-6.22 5.09-11.27 11.31-11.27s11.29 5.05 11.32 11.27h-4.03m-10.07 0v.05zm-14.25-8.98c-2.05-1.37-3.23-3.35-3.23-5.45s1.18-4.09 3.23-5.45c.78-.52 1.22-1.14 1.22-1.71s-.45-1.19-1.22-1.71l2.5-3.74c2.05 1.37 3.23 3.35 3.23 5.45s-1.18 4.09-3.23 5.45c-.78.52-1.22 1.14-1.22 1.71s.45 1.19 1.22 1.71zm13.49-8.97c-2.05-1.37-3.23-3.35-3.23-5.45s1.18-4.09 3.23-5.45c.78-.52 1.22-1.14 1.22-1.71s-.45-1.19-1.22-1.71l2.5-3.74c2.05 1.37 3.23 3.35 3.23 5.45s-1.18 4.09-3.23 5.45c-.78.52-1.22 1.14-1.22 1.71s.45 1.19 1.22 1.71z"/></svg>