<svg xmlns="http://www.w3.org/2000/svg" fill="none" viewBox="0 0 72 72"><g clip-path="url(#a)"><path fill="#000" d="m39.75 46.065-6.74-.02c-7.07 12.05-24.25 7.88-27.43-5.05-2.74-11.15 4.41-21.2 15.74-22.38 9.81.45 20.3-.69 30.04-.04 12.22.82 19.92 13.48 15.27 24.8-4.7 11.45-20.42 13.51-26.88 2.68zm12.74-20.08c-4.61.41-4.02 7.21 1.01 6.43 3.77-.59 2.98-6.78-1.01-6.43m-26.37 5.59v-3.79c0-.55-.44-1-.99-1h-4.26c-.55 0-1 .45-1 1v3.79c0 .55-.45 1-1 1H15c-.55 0-1 .45-1 1v4.43c0 .55.45 1 1 1h3.87c.55 0 1 .45 1 1v3.79c0 .55.44 1 1 1h4.26c.55 0 .99-.45.99-1v-3.79c0-.55.45-1 1-1H31c.55 0 1-.45 1-1v-4.43c0-.55-.45-1-1-1h-3.88c-.55 0-1-.45-1-1m18.79 1.12c-3.5.55-3.69 5.68-.04 6.2 5.35.76 4.89-6.96.04-6.2m13.84.21c-3.71.76-2.49 7 1.8 6.12 3.78-.77 3.23-7.16-1.8-6.12m-8.3 7.16c-3.32 3.07 1.79 7.86 4.78 4.45 2.73-3.12-1.96-7.05-4.78-4.45"/></g><defs><clipPath id="a"><path fill="#fff" d="M5 18.375h63v34.82H5z"/></clipPath></defs></svg>