<svg xmlns="http://www.w3.org/2000/svg" fill="none" viewBox="0 0 72 72"><path fill="#171738" d="M47.598 23.1h-13.34c-2.51.02-4.27.07-4.27.07-.14 0-2.99-1.95-4.49-3.4-1.28-1.24-4.93-3.47-6.67-2.48-1.8 1.04-.6 6.85-.97 8.86-.01.03-.03.07-.04.11a14.9 14.9 0 0 0-3.31 4.21c-1.22.04-2.94-.2-3.65.38-.92.76-.85 5.46-.82 6.8.03 1.25.06 5.29 1.5 5.71l2.67.11c1.89 4.06 5.56 7.12 10.02 8.15.54 1.5-1.42 7.16 1.47 7.5 1.09.13 5.49.15 6.46-.08.56-.14 1.47-.7 1.6-1.28.26-1.23-.2-4.14 0-5.47l.35-.27h11.62l.53.52c.18 1.5-.53 5.61.89 6.45.81.49 5.42.45 6.58.35 3.51-.32 1.74-5.69 2.23-8.06 3.93-3.78 6.06-7.46 6.03-13.04 0-.05.01-.1 0-.16.02-.19.02-.39.02-.58 0-7.95-6.45-14.4-14.41-14.4m-24.24 10.94c-1.71-.57-1.48-2.99.09-3.35 3.09-.71 2.8 4.31-.09 3.35"/><path fill="#171738" d="M31.438 20.53h18.07c-1.35-10.8-16.96-10.93-18.07 0"/></svg>