<svg xmlns="http://www.w3.org/2000/svg" fill="none" viewBox="0 0 72 72"><path fill="#000" d="M33.57 31.7c7.66-.95 14.68 4.37 18.45 11.45 2.97 5.6 2.81 14.38-4.35 15.26-4.62.57-7.5-3.49-13.18-2.97-4.81.44-10.11 6.48-14.66.31-6.06-8.22 5.94-23.07 13.74-24.04zm-7.83-5.01c10.14 2.66 11.12-14.76.33-13.07-6.45 1.01-7.12 11.29-.33 13.07m18.21.27c9.39.96 9.5-14.94-.74-13.34-6.92 1.08-6.9 12.56.74 13.34M14.87 38.23c7.94-.52 6.99-13.03-1.11-12.17-7.74.82-6.61 12.68 1.11 12.17m45.34-.67c6.01-2.97 3.14-12.35-3.36-11.5-9.15 1.19-5.03 15.64 3.36 11.5"/></svg>