<svg xmlns="http://www.w3.org/2000/svg" fill="none" viewBox="0 0 72 72"><path fill="#171738" d="M26.902 33.75h6.86V9.1c-6.23.51-11.86 3.14-16.17 7.17 5.19 4.22 8.69 10.44 9.31 17.48M9.102 38.25c.44 5.29 2.4 10.15 5.45 14.14 4.28-3.4 7.21-8.42 7.83-14.14H9.102M54.422 16.27a26.96 26.96 0 0 0-16.17-7.17v24.65h6.86c.62-7.04 4.12-13.26 9.31-17.48M17.582 55.73a26.96 26.96 0 0 0 16.17 7.17V38.25h-6.86c-.62 7.04-4.12 13.26-9.31 17.48M45.112 38.25h-6.86V62.9c6.23-.51 11.86-3.14 16.17-7.17-5.19-4.22-8.69-10.44-9.31-17.48M62.901 33.75c-.44-5.29-2.4-10.15-5.45-14.14-4.28 3.4-7.21 8.42-7.83 14.14h13.28M57.452 52.39c3.05-3.99 5.01-8.84 5.45-14.14h-13.27c.61 5.72 3.55 10.74 7.83 14.14zM14.552 19.61a26.9 26.9 0 0 0-5.45 14.14h13.27c-.61-5.72-3.55-10.74-7.83-14.14z"/></svg>