<svg xmlns="http://www.w3.org/2000/svg" fill="none" viewBox="0 0 72 72"><path fill="#171738" d="M57.15 35.1c-.23-.02-.46-.02-.7-.02-8.43 0-15.66 5.1-18.8 12.38v-9.5c7.28-.25 13.2-5.87 13.89-13.03-.16-.01-.32-.01-.49-.01-6.06 0-11.25 3.73-13.4 9.01V25.3c4.82-.52 8.52-3.38 8.52-6.83 0-3.83-4.52-6.93-10.1-6.93s-10.1 3.1-10.1 6.93c0 3.45 3.69 6.31 8.52 6.83v8.63c-2.15-5.28-7.34-9.01-13.4-9.01-.17 0-.33 0-.49.01.69 7.16 6.61 12.77 13.89 13.03v9.5c-3.14-7.28-10.37-12.38-18.8-12.38-.24 0-.47 0-.7.02.97 10.08 9.27 18 19.5 18.44v9.93h3.17v-9.93c10.23-.44 18.53-8.36 19.5-18.44z"/></svg>