<svg xmlns="http://www.w3.org/2000/svg" fill="none" viewBox="0 0 72 72"><path fill="#171738" d="M56.17 22.7H28.65v-6.74c0-.16-.01-.32-.03-.47a5.27 5.27 0 0 0-5.25-4.82c-2.92 0-5.28 2.37-5.28 5.29s2.36 5.28 5.28 5.28h.03v1.46h-7.29c-2.21 0-4 1.79-4 4v22.19h9.25v6.31c0 3.14 2.54 5.68 5.68 5.68s5.69-2.54 5.69-5.68v-6.31h6.43v6.31c0 3.14 2.54 5.68 5.68 5.68s5.69-2.54 5.69-5.68v-6.31h9.64V26.7c0-2.21-1.79-4-4-4M25.01 42.14c-3.45 0-6.24-2.79-6.24-6.23s2.79-6.23 6.24-6.23 6.23 2.79 6.23 6.23a6.23 6.23 0 0 1-6.23 6.23m22.03 0c-3.45 0-6.24-2.79-6.24-6.23s2.79-6.23 6.24-6.23 6.23 2.79 6.23 6.23a6.23 6.23 0 0 1-6.23 6.23"/><path fill="#171738" d="M49.29 21.18a5.28 5.28 0 0 0 4.53-5.22c0-2.92-2.37-5.29-5.28-5.29-2.66 0-4.87 1.97-5.23 4.53-.04.25-.06.5-.06.76v5.28h5.29q.375 0 .75-.06M25 32.81c-1.71 0-3.1 1.39-3.1 3.1s1.39 3.1 3.1 3.1 3.1-1.39 3.1-3.1-1.39-3.1-3.1-3.1M47.04 32.81c-1.71 0-3.1 1.39-3.1 3.1s1.39 3.1 3.1 3.1 3.1-1.39 3.1-3.1-1.39-3.1-3.1-3.1"/></svg>