<svg xmlns="http://www.w3.org/2000/svg" fill="none" viewBox="0 0 72 72"><path fill="#171738" d="M36 8.88C21.04 8.88 8.88 21.05 8.88 36S21.05 63.12 36 63.12 63.12 50.95 63.12 36 50.95 8.88 36 8.88m4.77 7.6.89-.05 2.08-.11c.32-.02.62-.14.86-.35l.05-.05c.31-.27.71-.38 1.1-.33.56.27 1.11.57 1.64.88l1.65 1.07c1.43 1.01 2.74 2.19 3.9 3.5l-.96.11c-.12.01-.24.01-.35 0l-6.14-.88c-.2-.03-.41-.01-.61.05l-2.46.75c-.23.07-.48.08-.71.03l-1.05-.23c-.61-.13-1.05-.65-1.09-1.27l-.11-1.6c-.05-.78.54-1.45 1.31-1.49zM19.79 33.79l-1.46.46c-.44.14-.91.05-1.28-.23l-2.76-2.15a1.5 1.5 0 0 1-.42-.54c1.76-8.36 8.15-15.03 16.36-17.2l.34.04c.12.01.24.04.35.09l3.46 1.34c.7.27 1.06 1.04.82 1.75l-.09.28c-.1.31-.32.58-.6.75l-1.67 1.02c-.21.13-.39.31-.5.53l-1.71 3.2c-.09.16-.21.31-.35.43l-3.07 2.48c-.15.12-.32.21-.51.26l-6.82 1.88c-.46.13-.83.48-.97.94l-.15.47c-.11.35-.07.74.1 1.06l.88 1.67c.13.25.19.54.15.83l-.08.65zm19.27 12.35c0 .29-.09.56-.25.8l-2.95 4.24c-.12.17-.2.37-.23.58l-.29 1.84c-.04.27-.16.52-.34.72l-3.15 3.48c-.1.11-.18.25-.24.39-1.78-.35-3.48-.91-5.08-1.65l1.01-7.3c.02-.15.02-.3-.01-.45l-.25-1.31c-.08-.4-.32-.75-.67-.95-.79-.45-2.17-1.25-2.55-1.44-.54-.27-2.03-.27-2.3-.68-.2-.3-1.01-2.2-1.41-3.13-.14-.33-.15-.7-.02-1.04l.94-2.45c.13-.35.4-.63.74-.78l.6-.27c.06-.03.12-.06.17-.09l.98-.61a1.4 1.4 0 0 1 1.87.36l.73 1c.25.33.63.54 1.04.57l5.4.32c.45.03.85.26 1.09.64l1.85 2.88c.13.2.31.37.53.48l2.03 1.06c.46.24.75.72.75 1.24v1.55zm13.32 5.44c-.23-1.13-.68-3.36-.68-3.66 0-.35-2.8-4.8-3.59-6.04-.13-.21-.2-.45-.21-.7l-.09-2.8c-.02-.53-.34-1.01-.82-1.23l-1.53-.69c-.25-.11-.53-.15-.8-.11l-2.47.39c-.32.05-.65-.01-.93-.18l-5.06-2.99a1.38 1.38 0 0 1-.62-.78l-.91-2.83a1.5 1.5 0 0 1 0-.89l.86-2.49c.13-.37.41-.68.78-.83l2.56-1.08c.25-.11.53-.14.8-.09l1.9.35c.42.08.78.34.98.71l1.12 2.07c.2.37.55.63.96.71l4.99.98c.37.07.76 0 1.08-.23l4.14-2.92c.48-.34 1.09-.32 1.56-.03 1.42 2.96 2.22 6.27 2.22 9.77 0 6.03-2.38 11.52-6.25 15.58z"/></svg>